<?xml version="1.0" encoding="UTF-8"?>
<svg id="Layer_1" data-name="Layer 1" xmlns="http://www.w3.org/2000/svg" xmlns:xlink="http://www.w3.org/1999/xlink" viewBox="0 0 3600 1800">
  <defs>
    <style>
      .cls-1 {
        fill: url(#linear-gradient-12);
      }

      .cls-1, .cls-2, .cls-3, .cls-4, .cls-5, .cls-6, .cls-7, .cls-8, .cls-9, .cls-10, .cls-11, .cls-12, .cls-13 {
        stroke-width: 0px;
      }

      .cls-2 {
        fill: url(#linear-gradient);
      }

      .cls-3 {
        fill: url(#linear-gradient-6);
      }

      .cls-4 {
        fill: url(#linear-gradient-11);
      }

      .cls-5 {
        fill: url(#linear-gradient-5);
      }

      .cls-6 {
        fill: url(#linear-gradient-13);
      }

      .cls-7 {
        fill: url(#linear-gradient-2);
      }

      .cls-8 {
        fill: url(#linear-gradient-7);
      }

      .cls-9 {
        fill: url(#linear-gradient-3);
      }

      .cls-10 {
        fill: url(#linear-gradient-9);
      }

      .cls-11 {
        fill: url(#linear-gradient-8);
      }

      .cls-12 {
        fill: url(#linear-gradient-10);
      }

      .cls-13 {
        fill: url(#linear-gradient-4);
      }
    </style>
    <linearGradient id="linear-gradient" x1="929.79" y1="1130.9" x2="929.79" y2="779.24" gradientUnits="userSpaceOnUse">
      <stop offset="0" stop-color="#a2d1d3"/>
      <stop offset="1" stop-color="#65b4b4" stop-opacity=".8"/>
    </linearGradient>
    <linearGradient id="linear-gradient-2" x1="1134.18" x2="1134.18" y2="756.82" xlink:href="#linear-gradient"/>
    <linearGradient id="linear-gradient-3" x1="1352.14" y1="1235.21" x2="1352.14" y2="863.73" xlink:href="#linear-gradient"/>
    <linearGradient id="linear-gradient-4" x1="1764.33" x2="1764.33" xlink:href="#linear-gradient"/>
    <linearGradient id="linear-gradient-5" x1="1968.72" x2="1968.72" y2="756.82" xlink:href="#linear-gradient"/>
    <linearGradient id="linear-gradient-6" x1="2190.81" x2="2190.81" y2="863.73" xlink:href="#linear-gradient"/>
    <linearGradient id="linear-gradient-7" x1="2479.91" y1="1135.62" x2="2479.91" y2="863.73" xlink:href="#linear-gradient"/>
    <linearGradient id="linear-gradient-8" x1="2782.25" x2="2782.25" y2="863.73" xlink:href="#linear-gradient"/>
    <linearGradient id="linear-gradient-9" x1="3079.97" y1="1135.85" x2="3079.97" y2="863.73" xlink:href="#linear-gradient"/>
    <linearGradient id="linear-gradient-10" x1="3369.09" y1="1135.85" x2="3369.09" y2="863.73" xlink:href="#linear-gradient"/>
    <linearGradient id="linear-gradient-11" x1="374.82" y1="1212.3" x2="374.82" y2="720.91" xlink:href="#linear-gradient"/>
    <linearGradient id="linear-gradient-12" x1="365.92" y1="1062.21" x2="365.92" y2="836.58" xlink:href="#linear-gradient"/>
    <linearGradient id="linear-gradient-13" x1="323.61" y1="1199.82" x2="323.61" y2="986.23" xlink:href="#linear-gradient"/>
  </defs>
  <g>
    <path class="cls-2" d="M810.25,1130.9v-351.66h239.08v67.97h-155.76v89.21h140.43v66.56h-140.43v127.92h-83.32Z"/>
    <path class="cls-7" d="M1134.07,836.12c-11.65,0-21.64-3.89-29.98-11.68-8.34-7.79-12.51-17.11-12.51-27.97s4.16-20.37,12.51-28.09c8.34-7.71,18.33-11.56,29.98-11.56s21.87,3.86,30.21,11.56c8.34,7.71,12.51,17.15,12.51,28.32s-4.17,20.14-12.51,27.85c-8.34,7.71-18.41,11.56-30.21,11.56ZM1093,1130.9v-263.86h82.36v263.86h-82.36Z"/>
    <path class="cls-9" d="M1351.43,1235.21c-22.98,0-43.04-2.91-60.19-8.73-17.15-5.82-31.03-13.92-41.65-24.31-10.62-10.39-17.51-22.42-20.65-36.11l71.51-14.63c1.57,4.72,4.49,9.09,8.74,13.1s9.83,7.24,16.75,9.68c6.92,2.44,15.26,3.66,25.02,3.66,16.84,0,29.78-3.78,38.83-11.33,9.05-7.55,13.57-19.2,13.57-34.93v-46.73h-6.37c-3.15,7.87-7.83,15.03-14.05,21.48-6.22,6.45-14.08,11.57-23.6,15.34-9.52,3.78-20.81,5.66-33.86,5.66-19.36,0-37.02-4.52-52.99-13.57-15.97-9.05-28.75-23.05-38.35-42.01-9.6-18.96-14.4-43.23-14.4-72.81s4.95-56.25,14.87-76.23c9.92-19.98,22.85-34.81,38.83-44.49,15.97-9.68,33.23-14.51,51.8-14.51,14,0,26,2.36,35.99,7.08,9.98,4.72,18.25,10.82,24.78,18.29,6.53,7.48,11.44,15.23,14.75,23.25h2.36v-45.31h81.43v257.96c0,24.23-5.63,44.53-16.88,60.89-11.25,16.36-26.86,28.68-46.84,36.93-19.99,8.26-43.11,12.39-69.39,12.39ZM1353.55,1066.94c10.54,0,19.51-2.67,26.91-8.02,7.39-5.35,13.06-13.18,16.99-23.48,3.93-10.3,5.9-22.54,5.9-36.7s-1.97-26.98-5.9-37.52c-3.93-10.54-9.56-18.68-16.87-24.43-7.32-5.74-16.32-8.61-27.03-8.61s-19.47,2.95-26.78,8.85c-7.32,5.9-12.87,14.12-16.64,24.66-3.78,10.54-5.67,22.89-5.67,37.05s1.89,26.36,5.67,36.58c3.78,10.23,9.32,18.06,16.64,23.48,7.31,5.43,16.24,8.14,26.78,8.14Z"/>
    <path class="cls-13" d="M1644.79,1130.9v-351.66h239.08v67.97h-155.76v89.21h140.43v66.56h-140.43v127.92h-83.32Z"/>
    <path class="cls-5" d="M1968.6,836.12c-11.65,0-21.64-3.89-29.98-11.68-8.34-7.79-12.51-17.11-12.51-27.97s4.16-20.37,12.51-28.09c8.34-7.71,18.33-11.56,29.98-11.56s21.87,3.86,30.21,11.56c8.34,7.71,12.51,17.15,12.51,28.32s-4.17,20.14-12.51,27.85c-8.34,7.71-18.41,11.56-30.21,11.56ZM1927.54,1130.9v-263.86h82.36v263.86h-82.36Z"/>
    <path class="cls-3" d="M2146.79,980.32v150.57h-82.36v-263.86h77.41l1.65,66.55h-3.54c6.45-20.92,16.55-37.8,30.33-50.62,13.77-12.82,32.29-19.23,55.58-19.23,18.41,0,34.46,4.09,48.15,12.27,13.68,8.18,24.3,19.75,31.86,34.69,7.55,14.95,11.33,32.33,11.33,52.16v168.04h-82.37v-151.99c0-14.79-3.78-26.39-11.33-34.81-7.56-8.42-18.1-12.63-31.63-12.63-8.81,0-16.64,1.93-23.48,5.78-6.85,3.86-12.16,9.4-15.93,16.64-3.78,7.24-5.67,16.05-5.67,26.43Z"/>
    <path class="cls-8" d="M2445.34,1135.62c-16.84,0-31.82-2.87-44.96-8.61-13.14-5.74-23.41-14.4-30.8-25.96-7.4-11.57-11.09-26-11.09-43.31,0-14.63,2.56-26.98,7.68-37.05,5.11-10.07,12.23-18.25,21.35-24.55,9.13-6.29,19.59-11.09,31.39-14.4,11.8-3.3,24.39-5.51,37.76-6.61,14.95-1.26,26.98-2.63,36.11-4.13,9.12-1.49,15.81-3.73,20.06-6.73,4.25-2.99,6.37-7.16,6.37-12.51v-.95c0-6.13-1.42-11.33-4.25-15.58-2.83-4.25-6.92-7.47-12.27-9.68-5.35-2.2-11.8-3.31-19.36-3.31s-14.28,1.1-20.18,3.31c-5.9,2.2-10.73,5.35-14.51,9.44-3.78,4.09-6.45,8.89-8.02,14.4l-74.57-9.68c3.46-15.1,10.26-28.36,20.41-39.77,10.15-11.41,23.44-20.3,39.89-26.67,16.44-6.37,35.67-9.56,57.71-9.56,16.36,0,31.66,1.93,45.9,5.78,14.24,3.86,26.71,9.52,37.41,16.99,10.7,7.48,19.03,16.68,25.02,27.62,5.98,10.94,8.97,23.48,8.97,37.64v179.13h-77.41v-37.05h-2.13c-4.72,9.13-10.74,16.76-18.05,22.89-7.32,6.14-15.81,10.82-25.49,14.04-9.68,3.22-20.65,4.84-32.92,4.84ZM2470.36,1081.1c9.28,0,17.66-1.89,25.13-5.66,7.47-3.78,13.41-8.97,17.82-15.58,4.4-6.61,6.61-14.24,6.61-22.89v-25.25c-2.36,1.26-5.31,2.44-8.85,3.54-3.54,1.1-7.43,2.09-11.68,2.95-4.25.87-8.49,1.65-12.74,2.36s-8.34,1.38-12.27,2.01c-8.02,1.1-14.87,2.99-20.54,5.67-5.66,2.68-9.99,6.14-12.98,10.38-2.99,4.25-4.48,9.36-4.48,15.34s1.49,10.74,4.48,14.75,7,7.08,12.04,9.2,10.86,3.19,17.47,3.19Z"/>
    <path class="cls-11" d="M2738.23,980.32v150.57h-82.36v-263.86h77.41l1.65,66.55h-3.54c6.45-20.92,16.55-37.8,30.33-50.62,13.77-12.82,32.29-19.23,55.58-19.23,18.41,0,34.46,4.09,48.15,12.27,13.68,8.18,24.3,19.75,31.86,34.69,7.55,14.95,11.33,32.33,11.33,52.16v168.04h-82.37v-151.99c0-14.79-3.78-26.39-11.33-34.81-7.56-8.42-18.1-12.63-31.63-12.63-8.81,0-16.64,1.93-23.48,5.78-6.85,3.86-12.16,9.4-15.93,16.64-3.78,7.24-5.67,16.05-5.67,26.43Z"/>
    <path class="cls-10" d="M3085.4,1135.85c-27.54,0-51.21-5.7-71.04-17.11-19.82-11.4-35.05-27.29-45.67-47.67-10.62-20.37-15.93-44.09-15.93-71.16s5.31-51.02,15.93-71.39c10.62-20.37,25.85-36.26,45.67-47.67,19.82-11.41,43.5-17.11,71.04-17.11,16.84,0,32.25,2.21,46.26,6.61,14,4.41,26.28,10.66,36.82,18.76,10.54,8.11,19.08,17.94,25.6,29.5s10.82,24.51,12.87,38.82l-76,12.75c-1.26-6.92-3.19-13.06-5.78-18.41-2.6-5.35-5.74-9.91-9.44-13.69-3.69-3.78-8.02-6.61-12.98-8.5-4.95-1.89-10.43-2.83-16.4-2.83-10.55,0-19.51,2.87-26.91,8.61-7.4,5.74-13.02,14.08-16.87,25.02-3.86,10.94-5.78,23.96-5.78,39.06s1.92,28.17,5.78,39.18c3.85,11.02,9.47,19.47,16.87,25.37,7.39,5.9,16.36,8.85,26.91,8.85,6.13,0,11.64-.98,16.52-2.95,4.87-1.97,9.24-4.88,13.1-8.73,3.86-3.85,7.08-8.57,9.68-14.16,2.6-5.58,4.44-11.92,5.55-19l75.99,12.27c-2.05,14.79-6.33,28.05-12.86,39.77-6.53,11.72-15.07,21.75-25.61,30.09-10.54,8.34-22.85,14.71-36.93,19.12-14.08,4.41-29.54,6.61-46.38,6.61Z"/>
    <path class="cls-12" d="M3373.58,1135.85c-27.54,0-51.3-5.47-71.27-16.41-19.99-10.93-35.29-26.55-45.91-46.85-10.62-20.3-15.93-44.53-15.93-72.69s5.31-50.82,15.93-71.27c10.62-20.45,25.68-36.38,45.2-47.79,19.51-11.41,42.48-17.11,68.91-17.11,18.56,0,35.6,2.91,51.1,8.73,15.49,5.82,28.95,14.44,40.35,25.84,11.41,11.41,20.22,25.45,26.43,42.13,6.22,16.68,9.32,35.96,9.32,57.82v20.77h-227.99v-47.91h188.81l-38.47,11.33c0-12.27-1.85-22.81-5.55-31.63-3.7-8.81-9.17-15.58-16.41-20.3-7.24-4.72-16.21-7.08-26.9-7.08s-19.75,2.4-27.14,7.2c-7.39,4.8-13.02,11.49-16.87,20.06-3.86,8.58-5.78,18.61-5.78,30.09v34.46c0,13.53,2.24,24.82,6.73,33.87,4.49,9.05,10.74,15.81,18.76,20.3,8.02,4.48,17.38,6.73,28.09,6.73,7.39,0,14.12-1.02,20.18-3.07,6.05-2.04,11.24-5.11,15.58-9.2,4.32-4.09,7.59-9.04,9.79-14.87l73.4,12.04c-4.41,15.11-12,28.29-22.78,39.53-10.78,11.25-24.39,19.94-40.83,26.08-16.44,6.14-35.36,9.21-56.76,9.21Z"/>
  </g>
  <g>
    <path class="cls-4" d="M659.58,736.47c-10.08,529.33-372.23,473.81-423.35,474.44-6.81-29.51-11.23-56.71-13.58-81.77,16.51-11.88,33.52-22.07,50.57-30.81-.04,25.34,2.76,45.67,2.76,55.28,315.45,25.97,325.56-364.15,325.56-364.15-370.13-64.98-444.45,176.15-456.76,318.64l-.02.02s-.02.09-.02.31c0,.09-.02.18-.02.31v.18c0,.09,0,.18-.02.29-4.77,56.11.07,96.64.07,96.64l-52.99,5.04c-37.87-623.33,567.81-474.44,567.81-474.44Z"/>
    <path class="cls-1" d="M508.17,890.41c-155.96,7.08-209.96,77.08-227.35,143.92-21.76,9.08-41.77,18.69-59.4,27.88,16.65-251.75,286.75-224.79,286.75-224.79,0,0,5.04,35.34,0,52.99Z"/>
    <path class="cls-6" d="M492.62,986.57v52.99s-105.07-.61-209.06,52.72c-17.05,8.74-34.06,18.93-50.57,30.81-28.17,20.26-54.92,45.44-77.89,76.72-.94-69.28-.29-91.11-.09-96.35.02-.11.02-.2.02-.29.02-.11.02-.2.02-.29v-.18c0-.13.02-.22.02-.31.02-.11.02-.22.04-.34,1.08-.76,30.63-21.87,76.63-45.89,17.63-9.19,37.64-18.8,59.4-27.88,58.95-24.51,130.61-44.95,201.47-41.72Z"/>
  </g>
</svg>