<?xml version="1.0" encoding="UTF-8"?>
<svg version="1.1" xmlns="http://www.w3.org/2000/svg" width="500" height="500">
<path d="M0 0 C2.34121925 0.94923359 4.60724284 1.94711022 6.8515625 3.10546875 C6.8515625 3.76546875 6.8515625 4.42546875 6.8515625 5.10546875 C8.8315625 6.09546875 8.8315625 6.09546875 10.8515625 7.10546875 C10.8515625 7.76546875 10.8515625 8.42546875 10.8515625 9.10546875 C11.47675781 9.3478125 12.10195313 9.59015625 12.74609375 9.83984375 C15.37649026 11.42100974 15.68527222 12.45356882 16.5390625 15.35546875 C16.76980469 16.103125 17.00054687 16.85078125 17.23828125 17.62109375 C18.65671966 23.36712449 18.94427321 27.11114573 17.1640625 32.85546875 C16.66326172 34.54929687 16.66326172 34.54929687 16.15234375 36.27734375 C14.70411486 39.4260456 13.96814643 39.88955305 10.8515625 41.10546875 C10.04627361 43.15547746 10.04627361 43.15547746 9.8515625 45.10546875 C9.1915625 45.10546875 8.5315625 45.10546875 7.8515625 45.10546875 C7.6040625 45.6675 7.3565625 46.22953125 7.1015625 46.80859375 C5.63881383 49.49639444 3.88351377 51.56952357 1.8515625 53.85546875 C1.1503125 54.6546875 0.4490625 55.45390625 -0.2734375 56.27734375 C-2.1484375 58.10546875 -2.1484375 58.10546875 -4.1484375 58.10546875 C-4.41398437 58.688125 -4.67953125 59.27078125 -4.953125 59.87109375 C-8.38373029 66.28385919 -14.37495902 71.42924057 -19.546875 76.44140625 C-21.23472474 78.02969608 -21.23472474 78.02969608 -22.1484375 80.10546875 C-22.8084375 80.10546875 -23.4684375 80.10546875 -24.1484375 80.10546875 C-24.4165625 80.688125 -24.6846875 81.27078125 -24.9609375 81.87109375 C-26.16324741 84.13333476 -27.48669663 85.91123193 -29.1484375 87.85546875 C-29.6640625 88.4690625 -30.1796875 89.08265625 -30.7109375 89.71484375 C-32.1484375 91.10546875 -32.1484375 91.10546875 -34.1484375 91.10546875 C-34.3753125 91.64171875 -34.6021875 92.17796875 -34.8359375 92.73046875 C-36.60413839 95.93007036 -38.68513953 98.39584098 -41.1484375 101.10546875 C-41.8084375 101.10546875 -42.4684375 101.10546875 -43.1484375 101.10546875 C-43.1484375 101.76546875 -43.1484375 102.42546875 -43.1484375 103.10546875 C-43.8084375 103.10546875 -44.4684375 103.10546875 -45.1484375 103.10546875 C-45.4784375 104.09546875 -45.8084375 105.08546875 -46.1484375 106.10546875 C-46.8084375 106.10546875 -47.4684375 106.10546875 -48.1484375 106.10546875 C-48.3959375 106.66234375 -48.6434375 107.21921875 -48.8984375 107.79296875 C-50.37768568 110.52957788 -52.08311189 112.78197744 -54.1484375 115.10546875 C-54.8084375 115.10546875 -55.4684375 115.10546875 -56.1484375 115.10546875 C-56.3959375 115.68941406 -56.6434375 116.27335937 -56.8984375 116.875 C-58.33299314 119.43478522 -59.91548036 120.90070176 -62.1484375 122.79296875 C-62.8496875 123.39496094 -63.5509375 123.99695313 -64.2734375 124.6171875 C-68.09721156 127.65230816 -71.66932073 127.27729642 -76.36181641 127.31079102 C-77.2106691 127.32069061 -78.05952179 127.33059021 -78.93409729 127.34078979 C-81.74770288 127.37244792 -84.56132538 127.39717924 -87.375 127.421875 C-89.32270758 127.44244081 -91.27041066 127.46343718 -93.21810913 127.48484802 C-98.3505896 127.54010727 -103.48311061 127.58949954 -108.61566162 127.63769531 C-113.85058205 127.68788223 -119.08544344 127.74358294 -124.3203125 127.79882812 C-134.59630376 127.90645681 -144.87234623 128.00789131 -155.1484375 128.10546875 C-155.1484375 129.42546875 -155.1484375 130.74546875 -155.1484375 132.10546875 C-154.2821875 132.44578125 -154.2821875 132.44578125 -153.3984375 132.79296875 C-150.45771852 134.50838815 -148.97568064 136.23408668 -147.1484375 139.10546875 C-146.72428795 142.71073988 -146.82140182 144.55349229 -148.6875 147.703125 C-152.59447369 152.31979241 -156.40930779 156.35824991 -161.1484375 160.10546875 C-162.15417528 161.43447939 -163.15639158 162.76620676 -164.1484375 164.10546875 C-164.8084375 164.10546875 -165.4684375 164.10546875 -166.1484375 164.10546875 C-166.1484375 164.76546875 -166.1484375 165.42546875 -166.1484375 166.10546875 C-166.8084375 166.10546875 -167.4684375 166.10546875 -168.1484375 166.10546875 C-168.1484375 166.76546875 -168.1484375 167.42546875 -168.1484375 168.10546875 C-168.8084375 168.10546875 -169.4684375 168.10546875 -170.1484375 168.10546875 C-170.4165625 168.72421875 -170.6846875 169.34296875 -170.9609375 169.98046875 C-172.1484375 172.10546875 -172.1484375 172.10546875 -175.1484375 174.10546875 C-179.22334502 174.44504438 -180.67845021 174.41879361 -184.1484375 172.10546875 C-184.1484375 171.44546875 -184.1484375 170.78546875 -184.1484375 170.10546875 C-184.8084375 170.10546875 -185.4684375 170.10546875 -186.1484375 170.10546875 C-186.1484375 169.44546875 -186.1484375 168.78546875 -186.1484375 168.10546875 C-186.8084375 168.10546875 -187.4684375 168.10546875 -188.1484375 168.10546875 C-188.1484375 167.44546875 -188.1484375 166.78546875 -188.1484375 166.10546875 C-188.8084375 166.10546875 -189.4684375 166.10546875 -190.1484375 166.10546875 C-192.7734375 163.73046875 -192.7734375 163.73046875 -195.1484375 161.10546875 C-195.1484375 160.44546875 -195.1484375 159.78546875 -195.1484375 159.10546875 C-197.1284375 158.11546875 -197.1284375 158.11546875 -199.1484375 157.10546875 C-199.1484375 156.44546875 -199.1484375 155.78546875 -199.1484375 155.10546875 C-200.1384375 154.77546875 -201.1284375 154.44546875 -202.1484375 154.10546875 C-204.3359375 152.16796875 -204.3359375 152.16796875 -206.1484375 150.10546875 C-206.1484375 149.44546875 -206.1484375 148.78546875 -206.1484375 148.10546875 C-208.1284375 147.11546875 -208.1284375 147.11546875 -210.1484375 146.10546875 C-210.1484375 145.44546875 -210.1484375 144.78546875 -210.1484375 144.10546875 C-211.0146875 143.76515625 -211.0146875 143.76515625 -211.8984375 143.41796875 C-214.73816058 141.76146362 -216.10068286 139.67978887 -218.1484375 137.10546875 C-219.97975962 135.49564564 -221.85042341 133.95619846 -223.7578125 132.4375 C-224.21671875 131.99792969 -224.675625 131.55835938 -225.1484375 131.10546875 C-225.1484375 130.44546875 -225.1484375 129.78546875 -225.1484375 129.10546875 C-226.1384375 128.77546875 -227.1284375 128.44546875 -228.1484375 128.10546875 C-228.1484375 127.44546875 -228.1484375 126.78546875 -228.1484375 126.10546875 C-229.0146875 125.73421875 -229.0146875 125.73421875 -229.8984375 125.35546875 C-232.47783729 123.92246887 -234.20965342 122.32122199 -236.1484375 120.10546875 C-236.1484375 119.44546875 -236.1484375 118.78546875 -236.1484375 118.10546875 C-237.4684375 117.44546875 -238.7884375 116.78546875 -240.1484375 116.10546875 C-240.1484375 115.44546875 -240.1484375 114.78546875 -240.1484375 114.10546875 C-241.1384375 113.77546875 -242.1284375 113.44546875 -243.1484375 113.10546875 C-245.8359375 110.66796875 -245.8359375 110.66796875 -248.1484375 108.10546875 C-248.1484375 107.44546875 -248.1484375 106.78546875 -248.1484375 106.10546875 C-249.6334375 105.61046875 -249.6334375 105.61046875 -251.1484375 105.10546875 C-251.1484375 104.44546875 -251.1484375 103.78546875 -251.1484375 103.10546875 C-251.7259375 102.87859375 -252.3034375 102.65171875 -252.8984375 102.41796875 C-255.73816058 100.76146362 -257.10068286 98.67978887 -259.1484375 96.10546875 C-260.97975962 94.49564564 -262.85042341 92.95619846 -264.7578125 91.4375 C-265.21671875 90.99792969 -265.675625 90.55835938 -266.1484375 90.10546875 C-266.1484375 89.44546875 -266.1484375 88.78546875 -266.1484375 88.10546875 C-267.045625 87.82703125 -267.045625 87.82703125 -267.9609375 87.54296875 C-271.34412679 85.31973007 -272.0641646 82.93231427 -273.1484375 79.10546875 C-271.00011075 72.52621809 -266.13587017 67.86211651 -260.8203125 63.65625 C-257.88686474 60.93527159 -255.57779026 57.69575492 -253.17578125 54.5078125 C-250.54339113 51.38850629 -247.94936203 48.78166494 -244.078125 47.328125 C-239.60212744 46.97923546 -237.67907429 47.6734277 -234.12109375 50.5703125 C-231.31301851 53.28556251 -228.70897346 56.15726286 -226.1484375 59.10546875 C-222.27061173 56.24138931 -218.42303421 53.38321443 -214.7734375 50.23046875 C-212.1484375 48.10546875 -212.1484375 48.10546875 -210.1484375 48.10546875 C-210.1484375 47.44546875 -210.1484375 46.78546875 -210.1484375 46.10546875 C-209.4884375 46.10546875 -208.8284375 46.10546875 -208.1484375 46.10546875 C-208.1484375 45.44546875 -208.1484375 44.78546875 -208.1484375 44.10546875 C-206.25 42.37890625 -206.25 42.37890625 -203.7734375 40.48046875 C-202.96132812 39.84882813 -202.14921875 39.2171875 -201.3125 38.56640625 C-199.1484375 37.10546875 -199.1484375 37.10546875 -197.1484375 37.10546875 C-197.1484375 36.44546875 -197.1484375 35.78546875 -197.1484375 35.10546875 C-195.16154019 33.7526876 -193.16098532 32.4197857 -191.1484375 31.10546875 C-190.8184375 30.44546875 -190.4884375 29.78546875 -190.1484375 29.10546875 C-189.1584375 29.10546875 -188.1684375 29.10546875 -187.1484375 29.10546875 C-186.8803125 28.46609375 -186.6121875 27.82671875 -186.3359375 27.16796875 C-185.1484375 25.10546875 -185.1484375 25.10546875 -182.1484375 24.10546875 C-180.19154525 24.00174547 -178.23132744 23.95690026 -176.27172852 23.94433594 C-175.06360001 23.93472839 -173.8554715 23.92512085 -172.61073303 23.91522217 C-171.30446457 23.91097229 -169.99819611 23.90672241 -168.65234375 23.90234375 C-167.29857888 23.89659005 -165.94481403 23.89083235 -164.59104919 23.8850708 C-161.7539736 23.87457229 -158.91692626 23.86872182 -156.07983398 23.86523438 C-152.44698005 23.85974576 -148.81450018 23.83570558 -145.18176365 23.80726242 C-142.38590913 23.78862864 -139.59014469 23.78343011 -136.79423332 23.7818985 C-134.80447427 23.77740502 -132.81476347 23.75876472 -130.8250885 23.7399292 C-129.0081675 23.74443085 -129.0081675 23.74443085 -127.15454102 23.74902344 C-126.08881363 23.74537781 -125.02308624 23.74173218 -123.92506409 23.73797607 C-120.78691283 24.15331734 -119.38729723 24.89678403 -117.1484375 27.10546875 C-117.1484375 27.76546875 -117.1484375 28.42546875 -117.1484375 29.10546875 C-116.1584375 29.43546875 -115.1684375 29.76546875 -114.1484375 30.10546875 C-111.4609375 32.54296875 -111.4609375 32.54296875 -109.1484375 35.10546875 C-109.1484375 35.76546875 -109.1484375 36.42546875 -109.1484375 37.10546875 C-108.1584375 37.43546875 -107.1684375 37.76546875 -106.1484375 38.10546875 C-106.1484375 38.76546875 -106.1484375 39.42546875 -106.1484375 40.10546875 C-105.10502197 40.08452148 -104.06160645 40.06357422 -102.98657227 40.04199219 C-99.07851129 39.96904695 -95.17050926 39.92347311 -91.26196289 39.88574219 C-89.57728929 39.86574989 -87.89268399 39.83854652 -86.20825195 39.80371094 C-68.97305925 39.45645372 -68.97305925 39.45645372 -61.1484375 44.10546875 C-60.849375 43.4815625 -60.5503125 42.85765625 -60.2421875 42.21484375 C-59.11222984 40.03563969 -58.02809916 38.67185347 -56.1484375 37.10546875 C-55.4884375 37.10546875 -54.8284375 37.10546875 -54.1484375 37.10546875 C-53.4884375 35.78546875 -52.8284375 34.46546875 -52.1484375 33.10546875 C-51.4884375 33.10546875 -50.8284375 33.10546875 -50.1484375 33.10546875 C-49.4884375 31.78546875 -48.8284375 30.46546875 -48.1484375 29.10546875 C-47.4884375 29.10546875 -46.8284375 29.10546875 -46.1484375 29.10546875 C-45.4884375 27.78546875 -44.8284375 26.46546875 -44.1484375 25.10546875 C-43.4884375 25.10546875 -42.8284375 25.10546875 -42.1484375 25.10546875 C-41.8184375 24.11546875 -41.4884375 23.12546875 -41.1484375 22.10546875 C-39.2109375 19.91796875 -39.2109375 19.91796875 -37.1484375 18.10546875 C-36.4884375 18.10546875 -35.8284375 18.10546875 -35.1484375 18.10546875 C-34.4884375 16.78546875 -33.8284375 15.46546875 -33.1484375 14.10546875 C-32.4884375 14.10546875 -31.8284375 14.10546875 -31.1484375 14.10546875 C-30.4884375 12.78546875 -29.8284375 11.46546875 -29.1484375 10.10546875 C-28.4884375 10.10546875 -27.8284375 10.10546875 -27.1484375 10.10546875 C-26.8184375 9.11546875 -26.4884375 8.12546875 -26.1484375 7.10546875 C-24.2109375 4.91796875 -24.2109375 4.91796875 -22.1484375 3.10546875 C-21.4884375 3.10546875 -20.8284375 3.10546875 -20.1484375 3.10546875 C-19.8184375 2.11546875 -19.4884375 1.12546875 -19.1484375 0.10546875 C-13.80267373 -2.56741314 -5.57744112 -1.58465759 0 0 Z M-13.8984375 18.91796875 C-15.0121875 20.49578125 -15.0121875 20.49578125 -16.1484375 22.10546875 C-17.1384375 22.76546875 -18.1284375 23.42546875 -19.1484375 24.10546875 C-19.1484375 24.76546875 -19.1484375 25.42546875 -19.1484375 26.10546875 C-19.8084375 26.10546875 -20.4684375 26.10546875 -21.1484375 26.10546875 C-22.62279929 27.59813597 -22.62279929 27.59813597 -24.0859375 29.48046875 C-26.06830367 31.94448399 -27.45543405 33.31013312 -30.1484375 35.10546875 C-30.1484375 35.76546875 -30.1484375 36.42546875 -30.1484375 37.10546875 C-31.4684375 37.76546875 -32.7884375 38.42546875 -34.1484375 39.10546875 C-34.1484375 39.76546875 -34.1484375 40.42546875 -34.1484375 41.10546875 C-35.1384375 41.43546875 -36.1284375 41.76546875 -37.1484375 42.10546875 C-38.34517437 43.53490445 -39.53753565 44.96851731 -40.6953125 46.4296875 C-42.22596551 48.19487605 -43.84648519 49.62081674 -45.6484375 51.10546875 C-51.64381509 55.82767799 -51.64381509 55.82767799 -54.5 62.61328125 C-54.57347656 64.00160156 -54.57347656 64.00160156 -54.6484375 65.41796875 C-54.96863401 71.30958455 -56.37274316 75.51942491 -60.1484375 80.10546875 C-66.47330396 85.54806217 -71.86555798 87.18688169 -80.13208008 87.31079102 C-81.90335014 87.34070885 -81.90335014 87.34070885 -83.71040344 87.37123108 C-84.97514999 87.38794357 -86.23989655 87.40465607 -87.54296875 87.421875 C-88.84546066 87.4426561 -90.14795258 87.46343719 -91.48991394 87.48484802 C-94.94053013 87.53985059 -98.39120385 87.58935534 -101.84191895 87.63769531 C-105.36797156 87.68807039 -108.89394137 87.74367262 -112.41992188 87.79882812 C-119.32935669 87.90614255 -126.23886871 88.00716252 -133.1484375 88.10546875 C-133.1484375 82.49546875 -133.1484375 76.88546875 -133.1484375 71.10546875 C-131.47821533 71.1211792 -129.80799316 71.13688965 -128.0871582 71.15307617 C-121.89059267 71.20737529 -115.69404818 71.24181915 -109.49731445 71.27026367 C-106.81524196 71.28365577 -104.13338258 71.30452952 -101.45141602 71.33178711 C-97.59645499 71.36817486 -93.74182017 71.38519675 -89.88671875 71.3984375 C-88.68759354 71.41392136 -87.48846832 71.42940521 -86.25300598 71.44535828 C-84.5718293 71.44569817 -84.5718293 71.44569817 -82.85668945 71.44604492 C-81.38109306 71.45603767 -81.38109306 71.45603767 -79.87568665 71.4662323 C-76.61098327 71.03437371 -74.75259069 70.10493164 -72.1484375 68.10546875 C-71.11969903 64.56918027 -70.59077467 62.32703539 -72.14672852 58.91870117 C-75.16125838 56.18801288 -78.30531287 56.52152359 -82.17578125 56.53125 C-82.96110733 56.51708542 -83.74643341 56.50292084 -84.55555725 56.48832703 C-87.06582265 56.44639448 -89.57537113 56.43118858 -92.0859375 56.41796875 C-94.59259761 56.38886908 -97.09907759 56.35424896 -99.60560608 56.31547546 C-101.16479872 56.29307875 -102.72410208 56.27720437 -104.28343201 56.26863098 C-111.44041354 56.19779789 -111.44041354 56.19779789 -114.1484375 55.10546875 C-115.3886044 53.66948602 -116.62326682 52.22658694 -117.78515625 50.7265625 C-119.18378494 49.0634367 -120.64184721 47.77406536 -122.3359375 46.41796875 C-125.1484375 44.10546875 -125.1484375 44.10546875 -127.1484375 41.10546875 C-129.26025971 40.58640636 -129.26025971 40.58640636 -131.74316406 40.57446289 C-132.69886292 40.53595718 -133.65456177 40.49745148 -134.63922119 40.45777893 C-135.67866882 40.43561813 -136.71811646 40.41345734 -137.7890625 40.390625 C-139.39971588 40.35430214 -139.39971588 40.35430214 -141.04290771 40.31724548 C-143.32598294 40.27567246 -145.60924595 40.24352838 -147.89257812 40.2199707 C-151.34620721 40.16874347 -154.79088429 40.03728696 -158.2421875 39.90429688 C-172.97381538 39.54157244 -172.97381538 39.54157244 -185.2890625 46.7578125 C-186.87355974 48.34813013 -188.38665562 49.96792729 -189.8626709 51.65914917 C-191.54605693 53.5527387 -193.41600536 55.15015966 -195.3671875 56.76171875 C-197.0232802 58.1964903 -198.67862696 59.63186698 -200.328125 61.07421875 C-202.97643182 63.36195798 -205.59732441 65.44729745 -208.5546875 67.32421875 C-209.83859375 68.2059375 -209.83859375 68.2059375 -211.1484375 69.10546875 C-211.1484375 69.76546875 -211.1484375 70.42546875 -211.1484375 71.10546875 C-211.8084375 71.10546875 -212.4684375 71.10546875 -213.1484375 71.10546875 C-211.54096389 75.12982761 -208.69685054 77.81255309 -205.66015625 80.7890625 C-205.11994339 81.32644547 -204.57973053 81.86382843 -204.02314758 82.41749573 C-202.29873044 84.13075421 -200.56750121 85.83693651 -198.8359375 87.54296875 C-197.68248198 88.68638437 -196.52948227 89.83026 -195.37695312 90.97460938 C-193.24720037 93.08807596 -191.11478915 95.19877949 -188.97924805 97.30639648 C-186.35948969 99.89678282 -183.75107021 102.49789121 -181.1484375 105.10546875 C-180.62789795 105.6260083 -180.1073584 106.14654785 -179.57104492 106.68286133 C-176.43017578 109.82373047 -173.28930664 112.96459961 -170.1484375 116.10546875 C-169.48199219 115.75613281 -168.81554687 115.40679687 -168.12890625 115.046875 C-167.20722656 114.59183594 -166.28554687 114.13679688 -165.3359375 113.66796875 C-164.44261719 113.21550781 -163.54929688 112.76304687 -162.62890625 112.296875 C-153.32418636 109.11175764 -142.99650389 110.03954379 -133.27910423 110.21369553 C-129.12446453 110.28329856 -124.96945435 110.3182095 -120.81445312 110.359375 C-115.55593111 110.41337492 -110.298135 110.47771065 -105.0402832 110.57861328 C-100.76115342 110.65982401 -96.48284572 110.7066731 -92.20302773 110.73067093 C-90.58061262 110.74606312 -88.95826425 110.77401692 -87.33629417 110.81501389 C-78.73571923 111.34781326 -78.73571923 111.34781326 -70.8956604 108.60821533 C-69.3761326 106.84309116 -68.29358759 105.12458742 -67.1484375 103.10546875 C-66.6091008 102.57649994 -66.0697641 102.04753113 -65.51408386 101.50253296 C-63.91543074 100.19271109 -63.91543074 100.19271109 -64.1484375 98.10546875 C-63.1584375 97.77546875 -62.1684375 97.44546875 -61.1484375 97.10546875 C-59.29487279 95.3514892 -59.29487279 95.3514892 -57.5234375 93.23046875 C-56.91242188 92.53179687 -56.30140625 91.833125 -55.671875 91.11328125 C-53.9626963 89.08410531 -53.9626963 89.08410531 -53.1484375 86.10546875 C-52.1584375 85.77546875 -51.1684375 85.44546875 -50.1484375 85.10546875 C-48.36588742 83.34664969 -48.36588742 83.34664969 -46.6484375 81.23046875 C-43.29549632 77.24517463 -43.29549632 77.24517463 -41.4296875 75.47265625 C-39.92050336 74.17453197 -39.92050336 74.17453197 -40.1484375 72.10546875 C-39.4884375 72.10546875 -38.8284375 72.10546875 -38.1484375 72.10546875 C-38.1484375 71.44546875 -38.1484375 70.78546875 -38.1484375 70.10546875 C-37.4884375 70.10546875 -36.8284375 70.10546875 -36.1484375 70.10546875 C-34.33776376 68.39214886 -34.33776376 68.39214886 -32.5234375 66.23046875 C-31.89179688 65.51117188 -31.26015625 64.791875 -30.609375 64.05078125 C-28.94826627 62.24439942 -28.94826627 62.24439942 -29.1484375 60.10546875 C-28.4884375 60.10546875 -27.8284375 60.10546875 -27.1484375 60.10546875 C-25.40567974 58.459589 -25.40567974 58.459589 -23.6484375 56.35546875 C-23.04 55.659375 -22.4315625 54.96328125 -21.8046875 54.24609375 C-20.26866787 52.26086083 -19.1760409 50.3867483 -18.1484375 48.10546875 C-17.4884375 48.10546875 -16.8284375 48.10546875 -16.1484375 48.10546875 C-13.96103882 46.33478699 -13.96103882 46.33478699 -12.1484375 44.10546875 C-12.1484375 43.11546875 -12.1484375 42.12546875 -12.1484375 41.10546875 C-10.8284375 40.44546875 -9.5084375 39.78546875 -8.1484375 39.10546875 C-8.1484375 38.44546875 -8.1484375 37.78546875 -8.1484375 37.10546875 C-7.1584375 36.77546875 -6.1684375 36.44546875 -5.1484375 36.10546875 C-1.89059279 32.784211 0.55293564 29.49001148 1.5390625 24.91796875 C0.57709189 20.98263442 -0.91510563 19.51326908 -4.1484375 17.10546875 C-8.96295823 15.47197065 -10.26610694 15.20308522 -13.8984375 18.91796875 Z M-242.1484375 68.10546875 C-243.13544282 69.18408235 -244.08814336 70.29421982 -245.0234375 71.41796875 C-246.58944219 73.29481357 -248.0342737 75.00931746 -249.90625 76.5859375 C-251.37523239 78.0366292 -251.37523239 78.0366292 -251.05078125 80.1015625 C-249.96728043 82.50777861 -248.78375796 83.55194448 -246.7109375 85.16796875 C-244.23566261 87.11614961 -242.94421826 88.41179761 -241.1484375 91.10546875 C-240.4884375 91.10546875 -239.8284375 91.10546875 -239.1484375 91.10546875 C-238.8184375 92.09546875 -238.4884375 93.08546875 -238.1484375 94.10546875 C-236.16583324 95.79279152 -234.1652033 97.45912932 -232.1484375 99.10546875 C-231.4884375 100.09546875 -230.8284375 101.08546875 -230.1484375 102.10546875 C-229.4884375 102.10546875 -228.8284375 102.10546875 -228.1484375 102.10546875 C-227.4884375 103.42546875 -226.8284375 104.74546875 -226.1484375 106.10546875 C-225.4884375 106.10546875 -224.8284375 106.10546875 -224.1484375 106.10546875 C-223.8184375 107.09546875 -223.4884375 108.08546875 -223.1484375 109.10546875 C-221.16583324 110.79279152 -219.1652033 112.45912932 -217.1484375 114.10546875 C-216.4884375 115.09546875 -215.8284375 116.08546875 -215.1484375 117.10546875 C-214.4884375 117.10546875 -213.8284375 117.10546875 -213.1484375 117.10546875 C-212.8184375 118.09546875 -212.4884375 119.08546875 -212.1484375 120.10546875 C-210.6835682 121.5562109 -210.6835682 121.5562109 -208.8984375 122.91796875 C-206.41781921 124.9503439 -204.32707153 126.96629055 -202.3359375 129.48046875 C-201.6140625 130.34671875 -200.8921875 131.21296875 -200.1484375 132.10546875 C-199.4884375 132.10546875 -198.8284375 132.10546875 -198.1484375 132.10546875 C-197.8184375 133.09546875 -197.4884375 134.08546875 -197.1484375 135.10546875 C-195.54929768 136.69244506 -195.54929768 136.69244506 -193.6484375 138.16796875 C-190.24792292 140.90649791 -190.24792292 140.90649791 -189.1484375 143.10546875 C-188.4884375 143.10546875 -187.8284375 143.10546875 -187.1484375 143.10546875 C-187.1484375 143.76546875 -187.1484375 144.42546875 -187.1484375 145.10546875 C-186.4884375 145.10546875 -185.8284375 145.10546875 -185.1484375 145.10546875 C-185.1484375 145.76546875 -185.1484375 146.42546875 -185.1484375 147.10546875 C-183.18916687 148.81983055 -181.18963538 150.48952043 -179.1484375 152.10546875 C-174.58094123 150.24463694 -171.26264004 147.06858752 -168.8359375 142.79296875 C-168.6090625 142.23609375 -168.3821875 141.67921875 -168.1484375 141.10546875 C-169.6334375 140.61046875 -169.6334375 140.61046875 -171.1484375 140.10546875 C-172.3359375 138.04296875 -172.3359375 138.04296875 -173.1484375 136.10546875 C-173.8084375 136.10546875 -174.4684375 136.10546875 -175.1484375 136.10546875 C-175.4784375 135.11546875 -175.8084375 134.12546875 -176.1484375 133.10546875 C-176.8084375 133.10546875 -177.4684375 133.10546875 -178.1484375 133.10546875 C-178.3959375 132.52796875 -178.6434375 131.95046875 -178.8984375 131.35546875 C-180.33143738 128.77606896 -181.93268426 127.04425283 -184.1484375 125.10546875 C-184.8084375 125.10546875 -185.4684375 125.10546875 -186.1484375 125.10546875 C-186.2309375 124.50734375 -186.3134375 123.90921875 -186.3984375 123.29296875 C-187.36420529 120.47614602 -188.63712317 119.62747743 -191.1484375 118.10546875 C-191.8084375 118.10546875 -192.4684375 118.10546875 -193.1484375 118.10546875 C-193.8084375 116.78546875 -194.4684375 115.46546875 -195.1484375 114.10546875 C-195.8084375 114.10546875 -196.4684375 114.10546875 -197.1484375 114.10546875 C-197.3753125 113.54859375 -197.6021875 112.99171875 -197.8359375 112.41796875 C-199.89649044 108.78747072 -202.55491703 105.8794644 -206.3359375 104.04296875 C-208.67704681 102.83205014 -209.18914876 101.50369061 -210.1484375 99.10546875 C-210.8084375 99.10546875 -211.4684375 99.10546875 -212.1484375 99.10546875 C-212.8084375 97.78546875 -213.4684375 96.46546875 -214.1484375 95.10546875 C-214.8084375 95.10546875 -215.4684375 95.10546875 -216.1484375 95.10546875 C-216.4165625 94.46609375 -216.6846875 93.82671875 -216.9609375 93.16796875 C-218.03511502 90.77415189 -218.03511502 90.77415189 -221.1484375 90.10546875 C-221.4784375 89.11546875 -221.8084375 88.12546875 -222.1484375 87.10546875 C-223.76946718 85.39438186 -225.44347213 83.73293569 -227.1484375 82.10546875 C-227.9940625 81.21859375 -228.8396875 80.33171875 -229.7109375 79.41796875 C-231.93876558 77.07116749 -231.93876558 77.07116749 -234.3359375 76.04296875 C-236.67704681 74.83205014 -237.18914876 73.50369061 -238.1484375 71.10546875 C-238.8084375 71.10546875 -239.4684375 71.10546875 -240.1484375 71.10546875 C-240.4784375 70.11546875 -240.8084375 69.12546875 -241.1484375 68.10546875 C-241.4784375 68.10546875 -241.8084375 68.10546875 -242.1484375 68.10546875 Z " fill="#ffffff" transform="translate(381.1484375,240.89453125)"/>
<path d="M0 0 C2.95308748 2.02707462 5.32316963 4.50474677 7.78125 7.09765625 C8.48020386 7.80651474 9.17915771 8.51537323 9.89929199 9.24571228 C12.11657164 11.50201388 14.30820347 13.78146329 16.5 16.0625 C18.00357668 17.60120547 19.50876897 19.13833398 21.015625 20.67382812 C24.69599064 24.43115693 28.35562632 28.20776882 32 32 C30.55306218 35.8677914 29.24822655 38.12891779 26.125 40.875 C25.44695312 41.49117188 24.76890625 42.10734375 24.0703125 42.7421875 C22 44 22 44 20.07275391 43.76245117 C17.6864415 42.88465922 16.5301718 41.87607696 14.765625 40.05859375 C14.19199219 39.47529297 13.61835937 38.89199219 13.02734375 38.29101562 C12.44082031 37.67935547 11.85429688 37.06769531 11.25 36.4375 C10.64800781 35.82197266 10.04601563 35.20644531 9.42578125 34.57226562 C7.94365619 33.05485187 6.4709033 31.52829404 5 30 C8.28383541 54.63055221 15.20825616 80.48153973 28.5625 101.6953125 C29.99009229 103.98411536 31.28337055 106.31311597 32.5625 108.6875 C34.14814576 111.59108509 35.85230232 114.27251214 37.8125 116.9375 C40 120 40 120 40 122 C40.66 122 41.32 122 42 122 C44.29648649 124.5614657 45 125.47967572 45 129 C45.66 129 46.32 129 47 129 C47 129.66 47 130.32 47 131 C47.66 131 48.32 131 49 131 C50.5078125 132.4609375 50.5078125 132.4609375 52.125 134.375 C52.66382812 135.00148438 53.20265625 135.62796875 53.7578125 136.2734375 C55 138 55 138 55 140 C55.66 140 56.32 140 57 140 C58.33984375 141.43359375 58.33984375 141.43359375 59.9375 143.4375 C63.76082328 147.98174653 68.15239323 151.49592694 72.83984375 155.1171875 C73.55269531 155.73851562 74.26554687 156.35984375 75 157 C75 157.66 75 158.32 75 159 C75.5775 159.28875 76.155 159.5775 76.75 159.875 C78.83333333 160.91666667 80.91666667 161.95833333 83 163 C83 163.66 83 164.32 83 165 C83.78375 165.309375 84.5675 165.61875 85.375 165.9375 C88 167 88 167 90 168 C90 168.66 90 169.32 90 170 C90.804375 170.20625 91.60875 170.4125 92.4375 170.625 C95.44645393 171.78635064 97.25512909 172.79404184 99.8125 174.625 C106.71646918 179.37003568 114.35259488 182.64674221 122 186 C122.7027002 186.31114746 123.40540039 186.62229492 124.12939453 186.94287109 C137.27847752 192.67546641 150.95761301 196.1771386 165 199 C165.98097656 199.19722656 166.96195313 199.39445313 167.97265625 199.59765625 C177.74916175 201.33459885 187.47690196 201.39685623 197.375 201.375 C198.25817902 201.37478851 199.14135803 201.37457703 200.05130005 201.37435913 C214.02617254 201.34099338 227.41176382 200.51487612 241 197 C241.78826172 196.79681152 242.57652344 196.59362305 243.38867188 196.38427734 C248.31428815 195.07699992 253.15532912 193.57923026 258 192 C259.05058594 191.68289063 260.10117187 191.36578125 261.18359375 191.0390625 C273.27764119 187.28075294 284.47246008 181.45022222 295.48828125 175.28515625 C298 174 298 174 300 174 C300 173.34 300 172.68 300 172 C301.98 171.34 303.96 170.68 306 170 C306 169.34 306 168.68 306 168 C310.38461538 165 310.38461538 165 313 165 C313 164.34 313 163.68 313 163 C313.99 162.67 314.98 162.34 316 162 C316.515625 161.484375 317.03125 160.96875 317.5625 160.4375 C318.036875 159.963125 318.51125 159.48875 319 159 C319.66 159 320.32 159 321 159 C321 158.34 321 157.68 321 157 C322.64093257 155.56974774 324.33991003 154.2057761 326.0625 152.875 C330.46253171 149.37652118 334.1604643 145.82318293 337.66015625 141.43359375 C338.32337891 140.72396484 338.32337891 140.72396484 339 140 C339.66 140 340.32 140 341 140 C341.2475 139.443125 341.495 138.88625 341.75 138.3125 C343.22924818 135.57589087 344.93467439 133.32349131 347 131 C347.66 131 348.32 131 349 131 C349 130.34 349 129.68 349 129 C349.66 129 350.32 129 351 129 C351.12375 128.401875 351.2475 127.80375 351.375 127.1875 C352 125 352 125 354 122 C354.66 122 355.32 122 356 122 C356.26296875 121.26910156 356.5259375 120.53820312 356.796875 119.78515625 C358.01045075 116.9758072 359.41655277 114.87796692 361.25 112.4375 C365.19946891 106.92299258 368.08077058 101.10250975 371 95 C371.56013794 93.92105469 371.56013794 93.92105469 372.1315918 92.8203125 C375.45918034 86.3774115 378.12077696 79.82453378 380.5625 73 C380.95381104 71.90929199 381.34512207 70.81858398 381.74829102 69.69482422 C384.94176753 60.57920433 387.27008871 51.48964462 389 42 C389.165 41.17363037 389.33 40.34726074 389.5 39.49584961 C390.86950411 32.45621805 391.59101837 25.45997548 392.125 18.3125 C392.25455078 16.66991211 392.25455078 16.66991211 392.38671875 14.99414062 C392.59614172 12.32981506 392.79879029 9.66495841 393 7 C398.28 7 403.56 7 409 7 C410.57471639 45.21311777 400.05761714 81.9708822 381 115 C380.34 115 379.68 115 379 115 C378.89816406 115.72960937 378.79632813 116.45921875 378.69140625 117.2109375 C377.92373063 120.30766288 376.81848442 122.06274787 374.9375 124.625 C374.31359375 125.4809375 373.6896875 126.336875 373.046875 127.21875 C372.37140625 128.1365625 371.6959375 129.054375 371 130 C370.28328125 131.0209375 369.5665625 132.041875 368.828125 133.09375 C368.12171875 134.0940625 367.4153125 135.094375 366.6875 136.125 C366.03136719 137.05570313 365.37523437 137.98640625 364.69921875 138.9453125 C363.85810547 139.96238281 363.85810547 139.96238281 363 141 C362.34 141 361.68 141 361 141 C360.59394531 141.88171875 360.59394531 141.88171875 360.1796875 142.78125 C356.75998834 149.21300207 350.76494836 154.34803982 345.6875 159.5 C345.15979004 160.04076172 344.63208008 160.58152344 344.08837891 161.13867188 C342.76438264 162.46565684 341.38608626 163.73800947 340 165 C339.34 165 338.68 165 338 165 C337.67 165.99 337.34 166.98 337 168 C335.4765625 169.28125 335.4765625 169.28125 333.625 170.5 C331.8146818 171.70174315 330.18833077 172.80725092 328.66796875 174.36328125 C320.3261759 182.54878758 309.23130971 188.54146545 299 194 C298.39494629 194.32709961 297.78989258 194.65419922 297.16650391 194.99121094 C251.18927533 219.65839717 193.44510072 227.11026134 143 212.61328125 C138.29296959 211.1903688 133.64177433 209.62165208 129 208 C128.30036133 207.76023437 127.60072266 207.52046875 126.87988281 207.2734375 C108.95823757 201.0871133 88.65657053 192.17503478 74 180 C74 179.34 74 178.68 74 178 C73.29488281 177.7628125 72.58976562 177.525625 71.86328125 177.28125 C68.49713132 175.77497827 66.03016827 173.84415483 63.1875 171.5 C62.21167969 170.7059375 61.23585938 169.911875 60.23046875 169.09375 C59.49441406 168.4028125 58.75835937 167.711875 58 167 C58 166.34 58 165.68 58 165 C57.41283203 164.73807861 56.82566406 164.47615723 56.22070312 164.20629883 C53.88040761 162.93503672 52.34076751 161.58445233 50.46875 159.69921875 C49.82292969 159.05146484 49.17710938 158.40371094 48.51171875 157.73632812 C47.84785156 157.06021484 47.18398437 156.38410156 46.5 155.6875 C45.83613281 155.02298828 45.17226562 154.35847656 44.48828125 153.67382812 C35 144.10032279 35 144.10032279 35 141 C34.34 141 33.68 141 33 141 C31.7109375 139.5390625 31.7109375 139.5390625 30.375 137.625 C29.92898437 136.99851562 29.48296875 136.37203125 29.0234375 135.7265625 C28 134 28 134 28 132 C27.34 132 26.68 132 26 132 C24.34375 129.69921875 24.34375 129.69921875 22.5 126.6875 C21.8915625 125.70136719 21.283125 124.71523438 20.65625 123.69921875 C20.1096875 122.80847656 19.563125 121.91773438 19 121 C18.34 120.01 17.68 119.02 17 118 C17 117.01 17 116.02 17 115 C16.34 115 15.68 115 15 115 C8.34478634 102.97027339 2.56846817 90.96946789 -2 78 C-2.26264648 77.27973633 -2.52529297 76.55947266 -2.79589844 75.81738281 C-7.77891659 62.03862929 -10.22080643 47.93604741 -12.52270508 33.49584961 C-12.88059999 31.01275671 -12.88059999 31.01275671 -14 29 C-14.66 29 -15.32 29 -16 29 C-16.66 30.32 -17.32 31.64 -18 33 C-18.66 33 -19.32 33 -20 33 C-20.26167969 33.58136719 -20.52335937 34.16273438 -20.79296875 34.76171875 C-22.81370384 38.50890712 -25.60735129 41.44088998 -29 44 C-31.8125 44.1875 -31.8125 44.1875 -34 43 C-35.125 41 -35.125 41 -36 39 C-36.99 38.67 -37.98 38.34 -39 38 C-39 37.34 -39 36.68 -39 36 C-39.99 35.67 -40.98 35.34 -42 35 C-41.49259538 30.60249328 -38.91706686 28.13051078 -36 25 C-35.34 25 -34.68 25 -34 25 C-34 24.34 -34 23.68 -34 23 C-33.34 23 -32.68 23 -32 23 C-32 22.34 -32 21.68 -32 21 C-31.34 21 -30.68 21 -30 21 C-30 20.34 -30 19.68 -30 19 C-29.34 19 -28.68 19 -28 19 C-28 18.34 -28 17.68 -28 17 C-27.34 17 -26.68 17 -26 17 C-26 16.34 -26 15.68 -26 15 C-25.34 15 -24.68 15 -24 15 C-24 14.34 -24 13.68 -24 13 C-22.625 11.375 -22.625 11.375 -21 10 C-20.34 10 -19.68 10 -19 10 C-19 9.34 -19 8.68 -19 8 C-18.34 8 -17.68 8 -17 8 C-17 7.34 -17 6.68 -17 6 C-16.34 6 -15.68 6 -15 6 C-15 5.34 -15 4.68 -15 4 C-14.34 4 -13.68 4 -13 4 C-13 3.34 -13 2.68 -13 2 C-12.34 2 -11.68 2 -11 2 C-11 1.34 -11 0.68 -11 0 C-7.07949935 -1.30683355 -3.89193169 -1.25158334 0 0 Z " fill="#ffffff" transform="translate(52,266)"/>
<path d="M0 0 C0.80791992 0.00725098 1.61583984 0.01450195 2.44824219 0.02197266 C20.6201873 0.27424201 38.92689104 5.01006471 56 11 C56.64839844 11.22268555 57.29679687 11.44537109 57.96484375 11.67480469 C67.78614493 15.06822698 77.04276981 19.24179752 86.23681641 24.07568359 C87.77913987 24.88421816 89.33211542 25.67236678 90.88671875 26.45703125 C98.82827167 30.57619248 106.06667171 35.71238871 113.36523438 40.85839844 C114.89544232 41.92698451 116.44706945 42.96471297 118 44 C118 44.66 118 45.32 118 46 C119.32 46.33 120.64 46.66 122 47 C122 47.66 122 48.32 122 49 C122.80244141 49.32871094 122.80244141 49.32871094 123.62109375 49.6640625 C126.83549666 51.46919517 129.38842559 53.87055711 132.0625 56.375 C132.63250732 56.90665771 133.20251465 57.43831543 133.78979492 57.98608398 C142.90265523 66.58739843 150.81553416 75.71283778 158 86 C158.83204076 87.13991924 159.6668128 88.2778485 160.50390625 89.4140625 C165.59428426 96.35055854 170.18058382 103.26544292 174 111 C174.50829346 112.02287109 174.50829346 112.02287109 175.02685547 113.06640625 C186.51780892 136.31751553 193.58388035 159.2012805 197.59863281 184.83374023 C197.97990248 187.16988094 197.97990248 187.16988094 199 190 C199.66 190 200.32 190 201 190 C201.66 188.68 202.32 187.36 203 186 C203.66 186 204.32 186 205 186 C205.26167969 185.41863281 205.52335937 184.83726562 205.79296875 184.23828125 C207.81370384 180.49109288 210.60735129 177.55911002 214 175 C216.8125 174.8125 216.8125 174.8125 219 176 C220.125 178 220.125 178 221 180 C221.99 180.33 222.98 180.66 224 181 C224 181.66 224 182.32 224 183 C224.99 183.33 225.98 183.66 227 184 C226.49259538 188.39750672 223.91706686 190.86948922 221 194 C220.34 194 219.68 194 219 194 C219 194.66 219 195.32 219 196 C218.34 196 217.68 196 217 196 C217 196.66 217 197.32 217 198 C216.34 198 215.68 198 215 198 C215 198.66 215 199.32 215 200 C214.34 200 213.68 200 213 200 C213 200.66 213 201.32 213 202 C212.34 202 211.68 202 211 202 C211 202.66 211 203.32 211 204 C210.34 204 209.68 204 209 204 C209 204.66 209 205.32 209 206 C207.625 207.625 207.625 207.625 206 209 C205.34 209 204.68 209 204 209 C204 209.66 204 210.32 204 211 C203.34 211 202.68 211 202 211 C202 211.66 202 212.32 202 213 C201.34 213 200.68 213 200 213 C200 213.66 200 214.32 200 215 C199.34 215 198.68 215 198 215 C198 215.66 198 216.32 198 217 C197.34 217 196.68 217 196 217 C196 217.66 196 218.32 196 219 C188.72734157 220.35591937 188.72734157 220.35591937 185.80078125 218.92382812 C182.09249341 216.37664296 179.09725718 213.3441171 175.94921875 210.14453125 C175.29041214 209.48289474 174.63160553 208.82125824 173.95283508 208.13957214 C171.85962961 206.03521451 169.77350459 203.92399352 167.6875 201.8125 C166.26543631 200.38040012 164.84291521 198.94875428 163.41992188 197.51757812 C159.94129428 194.01695601 156.46899812 190.51016378 153 187 C155.34055219 182.01688889 158.39266269 178.07155821 163 175 C166.32105922 175.31977243 167.95408561 176.59270817 170.234375 178.94140625 C170.80800781 179.52470703 171.38164062 180.10800781 171.97265625 180.70898438 C172.55917969 181.32064453 173.14570313 181.93230469 173.75 182.5625 C174.35199219 183.17802734 174.95398438 183.79355469 175.57421875 184.42773438 C177.05634381 185.94514813 178.5290967 187.47170596 180 189 C178.04618329 176.39216495 175.99320192 164.05245035 171.70947266 152.00732422 C170.94994822 149.85838755 170.23135107 147.69775551 169.51171875 145.53515625 C162.78724905 125.29526509 162.78724905 125.29526509 151 108 C151 107.01 151 106.02 151 105 C150.34 105 149.68 105 149 105 C147 102 147 102 147 99 C146.34 99 145.68 99 145 99 C145 98.34 145 97.68 145 97 C144.34 97 143.68 97 143 97 C142.46890625 95.98550781 141.9378125 94.97101563 141.390625 93.92578125 C139.03391102 89.79945356 136.05301686 86.57348737 132.75 83.1875 C127 77.25697674 127 77.25697674 127 75 C126.34 75 125.68 75 125 75 C125 74.34 125 73.68 125 73 C124.34 73 123.68 73 123 73 C123 72.34 123 71.68 123 71 C122.34 71 121.68 71 121 71 C121 70.34 121 69.68 121 69 C120.45859375 68.7628125 119.9171875 68.525625 119.359375 68.28125 C116.36749863 66.65652243 113.88840601 64.6498123 111.25 62.5 C110.26515625 61.7059375 109.2803125 60.911875 108.265625 60.09375 C107.51796875 59.4028125 106.7703125 58.711875 106 58 C106 57.34 106 56.68 106 56 C105.43667969 55.90203125 104.87335938 55.8040625 104.29296875 55.703125 C101.49355862 54.84470281 99.66355119 53.4915194 97.3125 51.75 C92.72006591 48.44044498 88.00973267 45.62587437 83 43 C83 42.34 83 41.68 83 41 C82.278125 40.88785156 81.55625 40.77570312 80.8125 40.66015625 C77.83464233 39.96118688 75.68027811 38.90128283 73 37.4375 C60.16181392 30.8680213 46.14663069 25.54259166 32.04736328 22.453125 C30.61742125 22.13664844 29.19147508 21.8018061 27.76904297 21.453125 C-15.00379856 11.14095958 -61.97505828 18.64117064 -101 38 C-102.47533203 38.71736328 -102.47533203 38.71736328 -103.98046875 39.44921875 C-110.54208897 42.83179697 -116.53071049 47.0108785 -122.52001953 51.3059082 C-123.17212402 51.76827881 -123.82422852 52.23064941 -124.49609375 52.70703125 C-125.07544678 53.1244458 -125.6547998 53.54186035 -126.25170898 53.97192383 C-128.14977992 55.08807754 -129.85010594 55.56943177 -132 56 C-132 56.66 -132 57.32 -132 58 C-133.69274284 59.56432787 -135.45569852 61.05328572 -137.25 62.5 C-138.22453125 63.2940625 -139.1990625 64.088125 -140.203125 64.90625 C-142.44894762 66.58748034 -144.4465803 67.88135899 -147 69 C-147 69.66 -147 70.32 -147 71 C-147.66 71 -148.32 71 -149 71 C-149 71.66 -149 72.32 -149 73 C-149.66 73 -150.32 73 -151 73 C-151 73.66 -151 74.32 -151 75 C-151.66 75 -152.32 75 -153 75 C-153.24621094 75.56460938 -153.49242187 76.12921875 -153.74609375 76.7109375 C-155.21406905 79.39079272 -156.9935669 81.37958803 -159.0625 83.625 C-161.85780458 86.58789167 -161.85780458 86.58789167 -164 90 C-164.66 90 -165.32 90 -166 90 C-166.268125 90.556875 -166.53625 91.11375 -166.8125 91.6875 C-168.10899496 94.21225334 -169.42476323 96.63714484 -171 99 C-171.66 99 -172.32 99 -173 99 C-173.144375 99.61875 -173.28875 100.2375 -173.4375 100.875 C-174 103 -174 103 -175 105 C-175.66 105 -176.32 105 -177 105 C-177.08121094 105.51304688 -177.16242188 106.02609375 -177.24609375 106.5546875 C-178.32080816 110.04054874 -180.21966789 113.00231757 -182.0625 116.125 C-197.76444305 143.53899661 -204.95215233 172.75956143 -208 204 C-213.28 204 -218.56 204 -224 204 C-224.9890628 182.43843098 -220.43559331 161.19517423 -213 141 C-212.70222656 140.1848291 -212.40445313 139.3696582 -212.09765625 138.52978516 C-207.64290187 126.50333466 -202.34707989 115.1391252 -196 104 C-195.59007812 103.27748047 -195.18015625 102.55496094 -194.7578125 101.81054688 C-193.53929582 99.67814269 -192.30566915 97.55561356 -191.0625 95.4375 C-190.68488525 94.78740967 -190.30727051 94.13731934 -189.91821289 93.4675293 C-189.00294331 91.94235831 -188.00869468 90.46505972 -187 89 C-186.34 89 -185.68 89 -185 89 C-184.75636719 88.45988281 -184.51273438 87.91976562 -184.26171875 87.36328125 C-180.36665201 80.067568 -174.68945088 73.32364432 -168.6953125 67.6640625 C-166.12786705 65.14394323 -163.8680819 62.37305239 -161.578125 59.6015625 C-160 58 -160 58 -157 57 C-157 56.34 -157 55.68 -157 55 C-153.28054101 51.08672304 -149.28139679 47.48539285 -144 46 C-144 45.34 -144 44.68 -144 44 C-139.86279939 40.73628365 -135.40359892 37.89191571 -131 35 C-130.00355469 34.34515625 -129.00710937 33.6903125 -127.98046875 33.015625 C-113.18610047 23.63099296 -97.93117179 15.58752793 -81.09375 10.63085938 C-79.06650079 10.02003709 -77.06549255 9.35763851 -75.0625 8.671875 C-50.40453499 0.33145263 -25.79324314 -0.3371925 0 0 Z " fill="#111111" transform="translate(263,15)"/>
<path d="M0 0 C0.92941406 -0.01224609 1.85882813 -0.02449219 2.81640625 -0.03710938 C27.46013341 -0.08866529 49.462082 11.17498092 67.39453125 27.33984375 C69.125 29.1875 69.125 29.1875 69.125 31.1875 C69.785 31.1875 70.445 31.1875 71.125 31.1875 C86.11520066 49.00343964 94.92989688 69.2617587 94.64648438 92.59423828 C94.62499795 94.68770013 94.64644759 96.77773318 94.671875 98.87109375 C94.69953415 111.4296358 92.33954557 123.27428437 86.3125 134.4375 C85.97138184 135.09298828 85.63026367 135.74847656 85.27880859 136.42382812 C79.09401693 148.12432164 79.09401693 148.12432164 75.125 153.1875 C74.465 153.1875 73.805 153.1875 73.125 153.1875 C72.83625 153.785625 72.5475 154.38375 72.25 155 C71.125 157.1875 71.125 157.1875 69.125 160.1875 C68.465 160.1875 67.805 160.1875 67.125 160.1875 C67.125 160.8475 67.125 161.5075 67.125 162.1875 C66.465 162.1875 65.805 162.1875 65.125 162.1875 C65.125 162.8475 65.125 163.5075 65.125 164.1875 C46.69143804 181.14637701 25.03664756 188.36192536 0.3125 188.375 C-0.89470703 188.38724609 -2.10191406 188.39949219 -3.34570312 188.41210938 C-10.75178613 188.42412573 -17.65160978 187.82459247 -24.875 186.1875 C-26.09558105 185.91595093 -26.09558105 185.91595093 -27.34082031 185.63891602 C-43.14152543 181.87811951 -56.69410469 171.47855191 -67.875 160.1875 C-69.2671875 158.8571875 -69.2671875 158.8571875 -70.6875 157.5 C-72.875 155.1875 -72.875 155.1875 -72.875 153.1875 C-73.535 153.1875 -74.195 153.1875 -74.875 153.1875 C-77.82204401 149.03691705 -80.33411643 144.59622785 -82.875 140.1875 C-83.35710937 139.35347656 -83.83921875 138.51945313 -84.3359375 137.66015625 C-88.31313945 130.25040103 -90.56506747 122.23672644 -92.875 114.1875 C-93.05603271 113.5908252 -93.23706543 112.99415039 -93.42358398 112.37939453 C-98.14632278 89.44767527 -92.91834934 63.48938528 -80.46630859 43.98046875 C-77.47341893 39.55063797 -74.3726134 35.23271954 -70.875 31.1875 C-70.215 31.1875 -69.555 31.1875 -68.875 31.1875 C-68.62234375 30.60355469 -68.3696875 30.01960938 -68.109375 29.41796875 C-59.80032417 14.40382944 -37.63524633 6.94298198 -22.33984375 2.05859375 C-14.90032753 0.1882306 -7.6302962 0.0052478 0 0 Z M-25.875 21.1875 C-26.67421875 21.48785156 -27.4734375 21.78820312 -28.296875 22.09765625 C-37.03094891 25.67490992 -45.36096458 30.33116654 -51.875 37.1875 C-52.7 37.98929688 -53.525 38.79109375 -54.375 39.6171875 C-68.62204709 53.55258044 -76.86259059 70.5194311 -77.11645508 90.6394043 C-77.17510289 104.651705 -77.17510289 104.651705 -73.875 118.1875 C-73.36453125 119.75951172 -73.36453125 119.75951172 -72.84375 121.36328125 C-70.0468015 129.40450818 -66.27893325 136.56678708 -60.875 143.1875 C-60.215 143.1875 -59.555 143.1875 -58.875 143.1875 C-58.6171875 143.77015625 -58.359375 144.3528125 -58.09375 144.953125 C-56.77665983 147.3677903 -55.32411616 149.00490177 -53.375 150.9375 C-52.46234375 151.85789063 -52.46234375 151.85789063 -51.53125 152.796875 C-49.98015723 154.40184088 -49.98015723 154.40184088 -47.875 154.1875 C-47.875 154.8475 -47.875 155.5075 -47.875 156.1875 C-33.4844202 166.62832492 -17.80125965 171.98550169 -0.125 171.8125 C0.57888855 171.81118073 1.2827771 171.80986145 2.00799561 171.8085022 C13.05263918 171.75493927 22.27982632 170.52571423 32.125 165.1875 C33.115 164.713125 34.105 164.23875 35.125 163.75 C43.85981924 159.20061498 52.94970701 152.96724978 59.125 145.1875 C59.125 144.5275 59.125 143.8675 59.125 143.1875 C59.785 143.1875 60.445 143.1875 61.125 143.1875 C72.51928281 128.80791509 77.30144069 112.47188846 77.3125 94.3125 C77.32474609 93.26191406 77.33699219 92.21132812 77.34960938 91.12890625 C77.37734218 76.3565677 72.32548001 62.42809919 64.125 50.1875 C63.465 49.1975 62.805 48.2075 62.125 47.1875 C61.465 47.1875 60.805 47.1875 60.125 47.1875 C59.7846875 46.3521875 59.7846875 46.3521875 59.4375 45.5 C57.7546426 42.53496553 55.58878626 40.53396311 53.125 38.1875 C52.403125 37.424375 51.68125 36.66125 50.9375 35.875 C49.29377727 33.96036049 49.29377727 33.96036049 47.125 34.1875 C47.125 33.5275 47.125 32.8675 47.125 32.1875 C40.07866878 27.08498429 32.42462266 22.82655052 24.125 20.1875 C23.23425781 19.88972656 22.34351563 19.59195313 21.42578125 19.28515625 C6.27286122 14.98687697 -11.23258424 15.40654624 -25.875 21.1875 Z " fill="#ffffff" transform="translate(249.875,61.8125)"/>
<path d="M0 0 C2.64590014 -0.02684679 5.29153096 -0.04676357 7.9375 -0.0625 C8.69224609 -0.07087891 9.44699219 -0.07925781 10.22460938 -0.08789062 C12.14994313 -0.09652441 14.07535581 -0.05224333 16 0 C17 1 17 1 17.125 3.9375 C17 7 17 7 16 9 C16.90492188 9.27263672 16.90492188 9.27263672 17.828125 9.55078125 C26.17647059 12.17647059 26.17647059 12.17647059 29 15 C29 15.66 29 16.32 29 17 C29.5775 17.185625 30.155 17.37125 30.75 17.5625 C35.84359357 20.81674033 38.4459861 28.30194902 40 34 C40.1875 37.5 40.1875 37.5 40 40 C27.25 42.125 27.25 42.125 23 40 C22.3671875 37.93359375 22.3671875 37.93359375 21.875 35.4375 C21.70742188 34.61121094 21.53984375 33.78492188 21.3671875 32.93359375 C21.18542969 31.97646484 21.18542969 31.97646484 21 31 C20.34 31 19.68 31 19 31 C19 30.34 19 29.68 19 29 C18.34 29 17.68 29 17 29 C17 28.34 17 27.68 17 27 C10.93606939 25.43511468 5.21072493 24.87454004 -0.4375 27.75 C-3.50396622 30.40232578 -3.50396622 30.40232578 -5 34 C-5.22348143 36.4797728 -5.22348143 36.4797728 -4 39 C-2.36449305 40.617968 -0.63325166 42.0302329 1.16796875 43.4609375 C3.80090382 45.67282751 5.80815915 48.35855077 8 51 C8.99 51.825 9.98 52.65 11 53.5 C13.24864243 55.37386869 14.83563461 56.89652654 16.625 59.125 C18.6539462 61.58109276 20.47963199 63.13306074 23 65 C23 65.66 23 66.32 23 67 C23.66 67 24.32 67 25 67 C25 67.66 25 68.32 25 69 C25.66 69 26.32 69 27 69 C27 69.66 27 70.32 27 71 C27.66 71 28.32 71 29 71 C30.87398004 72.90167432 32.53574744 74.94262846 34.24609375 76.9921875 C35.98500176 79.11508952 35.98500176 79.11508952 38.4375 80.875 C40.68224227 83.92784949 40.60612731 86.40931722 40.45703125 90.13671875 C39.27425072 97.5467882 36.05034474 104.46120951 31 110 C28.5625 111.765625 28.5625 111.765625 26 113.25 C25.154375 113.75015625 24.30875 114.2503125 23.4375 114.765625 C21.25649396 115.87010883 19.38732419 116.53579808 17 117 C17.020625 118.11375 17.04125 119.2275 17.0625 120.375 C17 124 17 124 16 126 C10.72 126 5.44 126 0 126 C-1.35439668 123.29120665 -1.06501451 120.99066732 -1 118 C-1.73605469 117.62488281 -2.47210938 117.24976563 -3.23046875 116.86328125 C-12.96731475 111.75690363 -18.96134941 106.09018472 -23.3125 95.9375 C-24 93 -24 93 -24 86 C-18.39 86 -12.78 86 -7 86 C-6.443125 87.5675 -5.88625 89.135 -5.3125 90.75 C-3.55117956 95.07379704 -2.30328109 97.80054522 2 100 C6.67126669 101.32836398 10.51347815 101.65034964 14.875 99.3125 C18.55716291 96.65602687 18.55716291 96.65602687 21 93 C21.25086724 89.83267579 21.25086724 89.83267579 21 87 C20.45859375 86.7834375 19.9171875 86.566875 19.359375 86.34375 C16.18354656 84.53500003 13.79271919 82.08276201 11.25 79.5 C10.74339844 79.00113281 10.23679688 78.50226563 9.71484375 77.98828125 C6 74.25341139 6 74.25341139 6 72 C4.68 71.34 3.36 70.68 2 70 C2 69.34 2 68.68 2 68 C0.68 67.34 -0.64 66.68 -2 66 C-2 65.34 -2 64.68 -2 64 C-2.598125 63.731875 -3.19625 63.46375 -3.8125 63.1875 C-5.99847854 62.00082594 -7.41332594 60.90400887 -9 59 C-9 58.34 -9 57.68 -9 57 C-10.32 56.34 -11.64 55.68 -13 55 C-13 54.34 -13 53.68 -13 53 C-14.32 52.34 -15.64 51.68 -17 51 C-17 50.34 -17 49.68 -17 49 C-17.598125 48.7525 -18.19625 48.505 -18.8125 48.25 C-21.37453397 46.78598059 -22.42867677 45.48682808 -24 43 C-25.65664711 35.25517475 -22.75314513 28.65087257 -19 22 C-16.8125 18.8125 -16.8125 18.8125 -15 17 C-14.34 17 -13.68 17 -13 17 C-13 16.34 -13 15.68 -13 15 C-12.38511719 14.66226563 -11.77023438 14.32453125 -11.13671875 13.9765625 C-10.32847656 13.53054687 -9.52023438 13.08453125 -8.6875 12.625 C-7.88699219 12.18414062 -7.08648437 11.74328125 -6.26171875 11.2890625 C-4.46472057 10.26486665 -2.72099292 9.14732862 -1 8 C-0.42251197 6.03638136 -0.42251197 6.03638136 -0.3125 3.875 C-0.209375 2.59625 -0.10625 1.3175 0 0 Z " fill="#ffffff" transform="translate(242,93)"/>
<path d="M0 0 C0 3 0 3 -1.65234375 4.99291992 C-2.78349609 6.10050659 -2.78349609 6.10050659 -3.9375 7.23046875 C-4.74960938 8.03291016 -5.56171875 8.83535156 -6.3984375 9.66210938 C-7.25695312 10.49548828 -8.11546875 11.32886719 -9 12.1875 C-10.28777344 13.4549707 -10.28777344 13.4549707 -11.6015625 14.74804688 C-13.7278365 16.83888298 -15.86078464 18.92241983 -18 21 C-18.66 20.67 -19.32 20.34 -20 20 C-18.38150935 18.16053461 -16.75581169 16.32848583 -15.125 14.5 C-14.66480469 13.97535156 -14.20460938 13.45070313 -13.73046875 12.91015625 C-12.52827924 11.56858245 -11.26754054 10.28000815 -10 9 C-9.34 9 -8.68 9 -8 9 C-8 8.34 -8 7.68 -8 7 C-6.25 5.2734375 -6.25 5.2734375 -4 3.375 C-3.2575 2.74335937 -2.515 2.11171875 -1.75 1.4609375 C-0.88375 0.73777344 -0.88375 0.73777344 0 0 Z " fill="#646464" transform="translate(114,63)"/>
<path d="M0 0 C0.33 0.66 0.66 1.32 1 2 C-2.66666667 5.66666667 -6.33333333 9.33333333 -10 13 C-10.66 12.67 -11.32 12.34 -12 12 C-11.34 11.01 -10.68 10.02 -10 9 C-9.34 9 -8.68 9 -8 9 C-7.79375 8.443125 -7.5875 7.88625 -7.375 7.3125 C-5.44999226 4.07498698 -2.96149098 2.31768859 0 0 Z " fill="#696969" transform="translate(189,84)"/>
<path d="M0 0 C0.66 0.33 1.32 0.66 2 1 C1.360625 1.763125 0.72125 2.52625 0.0625 3.3125 C-2.14232781 5.88246713 -2.14232781 5.88246713 -3 9 C-5.21701147 10.58965571 -7.57862473 11.72327486 -10 13 C-10 12.34 -10 11.68 -10 11 C-9.34 11 -8.68 11 -8 11 C-7.34 9.68 -6.68 8.36 -6 7 C-5.34 7 -4.68 7 -4 7 C-4 6.01 -4 5.02 -4 4 C-2 1.8125 -2 1.8125 0 0 Z " fill="#636363" transform="translate(373,278)"/>
<path d="M0 0 C0.66 0 1.32 0 2 0 C0.55922954 3.36179774 -1.24750021 5.59156268 -4 8 C-4.66 8 -5.32 8 -6 8 C-6.33 8.99 -6.66 9.98 -7 11 C-7.66 11 -8.32 11 -9 11 C-7.71480435 8.13302508 -6.42870746 6.02392288 -4 4 C-3.34 4 -2.68 4 -2 4 C-1.34 2.68 -0.68 1.36 0 0 Z " fill="#676767" transform="translate(329,274)"/>
<path d="M0 0 C0.66 0 1.32 0 2 0 C0.4169423 4.2742558 -2.50568404 6.26531794 -6 9 C-6.66 8.67 -7.32 8.34 -8 8 C-6.37660195 6.29115995 -4.70680947 4.62553283 -3 3 C-2.34 3 -1.68 3 -1 3 C-0.67 2.01 -0.34 1.02 0 0 Z " fill="#626262" transform="translate(362,241)"/>
<path d="M0 0 C0.33 0.99 0.66 1.98 1 3 C-1.31 4.98 -3.62 6.96 -6 9 C-6 6 -6 6 -4.125 3.8125 C-2 2 -2 2 0 2 C0 1.34 0 0.68 0 0 Z " fill="#707070" transform="translate(316,341)"/>
<path d="M0 0 C0.33 0.66 0.66 1.32 1 2 C-3.43076923 7.78461538 -3.43076923 7.78461538 -6.3125 8.875 C-6.869375 8.91625 -7.42625 8.9575 -8 9 C-7.67 8.34 -7.34 7.68 -7 7 C-6.34 7 -5.68 7 -5 7 C-4.34 5.68 -3.68 4.36 -3 3 C-2.34 3 -1.68 3 -1 3 C-0.67 2.01 -0.34 1.02 0 0 Z " fill="#707070" transform="translate(340,263)"/>
</svg>
